<svg width="133" height="84" viewBox="0 0 133 84" fill="none" xmlns="http://www.w3.org/2000/svg">
<path d="M132.395 40.7951C131.03 37.0082 122.5 35.1147 122.5 35.1147C120.964 33.7377 122.67 32.1885 122.67 32.1885C123.353 31.1557 124.718 29.6065 124.718 29.6065C122.5 30.6393 119.94 30.4672 119.94 30.4672C119.258 29.9508 120.282 29.7787 120.282 29.7787C126.424 27.0246 125.571 19.9672 125.571 19.9672C123.523 21.6885 120.111 21.1721 120.111 21.1721C117.722 20.8279 117.722 18.7623 117.722 18.7623C118.063 16.3525 121.305 15.4918 121.305 15.4918C117.722 10.5 107.144 12.0492 107.144 12.0492C109.362 4.64754 105.95 0.172131 105.95 0.172131C94.1772 11.7049 73.8739 12.5656 73.8739 12.5656C73.3621 12.5656 72.1678 11.5328 72.1678 11.5328C70.1204 9.29508 71.3147 4.64754 71.3147 4.64754C69.6085 5.68033 68.073 9.9836 68.073 9.9836C67.0493 11.3607 66.708 9.29508 66.708 9.29508C66.0256 3.95902 62.6133 1.72131 62.6133 1.72131C63.4663 4.64754 62.1014 9.29508 62.1014 9.29508C61.4189 10.6721 60.5659 10.1557 60.5659 10.1557C58.1772 8.95082 58.8597 5.50819 58.8597 5.50819C54.4237 7.91803 54.4237 12.0492 54.4237 12.0492C37.0208 11.0164 26.1014 0 26.1014 0C23.7128 5.5082 25.2483 10.8443 25.2483 10.8443C22.3479 8.77869 18.4237 9.29508 18.4237 9.29508C21.836 12.5656 17.9118 13.2541 17.9118 13.2541C10.4047 12.9098 8.52795 16.6967 8.52795 16.6967C9.89288 17.2131 11.0872 19.1066 11.0872 19.1066C12.2815 22.2049 10.4047 23.0656 10.4047 23.0656C7.67487 24.4426 4.7744 19.9672 4.7744 19.9672C4.26255 29.2623 10.2341 30.6393 10.2341 30.6393C9.21042 31.8443 4.43317 31.1557 4.43317 31.1557C8.69857 33.2213 8.35734 35.1147 8.35734 35.1147C7.84549 37.0082 4.7744 36.8361 4.7744 36.8361C2.38577 37.1803 0.679611 38.7295 0.679611 38.7295C6.30994 40.4508 6.13933 44.582 6.13933 44.582C3.06824 47.5082 0.338379 44.0656 0.338379 44.0656C1.53269 51.1229 7.67487 51.8115 7.67487 51.8115C9.38103 52.8442 8.18672 53.5328 8.18672 53.5328C7.50426 54.3934 5.11563 56.8033 5.11563 56.8033C3.58008 58.1803 3.58008 61.9672 3.58008 61.9672C4.7744 60.5901 9.21042 59.5574 9.21042 59.5574C13.4758 59.3852 12.4521 63.1721 12.4521 63.1721C12.4521 64.8934 9.0398 68.336 9.0398 68.336C11.4284 69.7131 17.2294 69.7131 17.2294 69.7131C20.1298 69.7131 19.9592 70.918 19.9592 70.918C20.1298 73.5 17.4 76.7705 17.4 76.7705C19.2768 75.0492 25.5896 73.6721 25.5896 73.6721C28.8313 73.3279 27.8076 75.0492 27.9782 75.0492C27.2957 79.1803 28.8313 82.7951 29.0019 83.3115C30.3668 79.0082 33.4379 77.459 33.7791 77.2869C36.1678 76.4262 35.8265 78.4918 35.8265 78.836C36.509 79.3524 39.7507 81.418 44.6986 80.041C47.4284 79.3524 50.6701 78.1475 53.5706 75.9098C55.1061 74.877 56.9829 73.1557 58.8597 70.5737C59.7128 69.3688 60.7365 67.9918 61.5896 66.2705H61.7602C63.4663 63.3442 64.8313 59.7295 65.855 55.2541C65.855 55.2541 66.8787 60.5901 69.4379 66.2705H70.1204C70.1204 66.2705 74.2152 74.1885 80.0161 77.6311C86.4995 81.5901 89.2294 82.7951 94.8597 82.1065C95.7128 81.9344 96.2246 81.9344 96.3952 81.7623C96.2246 81.5901 96.2246 81.418 96.054 81.2459C97.7602 78.6639 99.2957 79.8688 99.2957 79.8688C100.149 80.5574 99.9782 81.9344 99.9782 81.9344C104.073 80.2131 104.755 75.0492 104.755 75.0492C105.95 72.8115 107.656 74.1885 107.656 74.1885C109.533 75.0492 110.215 77.9754 110.215 77.9754C111.751 74.0164 110.727 70.0574 110.727 70.0574C110.386 68.5082 111.409 69.0246 111.409 69.0246C118.746 70.5738 120.793 68.6803 120.793 68.6803C118.234 67.4754 117.893 63.6885 117.893 63.6885C118.063 60.7623 120.793 61.4508 120.793 61.4508C123.523 61.9672 125.059 63.8606 125.059 63.8606C125.571 59.2131 121.817 55.4262 121.817 55.4262C121.305 53.877 122.329 53.1885 122.329 53.1885C129.324 50.6065 129.324 46.6475 129.324 46.6475C125.229 47.5082 124.376 44.0656 124.376 44.0656C126.765 39.0738 132.395 40.7951 132.395 40.7951Z" fill="#0A9C9A"/>
<path d="M66.197 48.1914C62.2728 49.5685 58.3486 57.1422 58.3486 57.1422C58.8605 64.3717 66.0264 70.9127 66.197 71.0849C66.3676 70.9127 73.1922 64.3717 73.7041 57.1422C73.7041 57.1422 69.9505 49.5685 66.197 48.1914Z" fill="#0A5B59"/>
<path d="M58.5228 58.6944C58.5228 58.6944 62.2763 51.8092 66.0299 50.6042V71.26C66.2005 71.26 59.0346 65.4075 58.5228 58.6944Z" fill="#FAB84A"/>
<path d="M73.3614 58.6944C73.3614 58.6944 69.7785 51.8092 66.0249 50.6042V71.26C66.0249 71.26 72.8495 65.2354 73.3614 58.6944Z" fill="#E9934C"/>
<path d="M36.3434 67.3031C49.1585 67.3031 59.5472 56.8221 59.5472 43.8932C59.5472 30.9643 49.1585 20.4834 36.3434 20.4834C23.5283 20.4834 13.1396 30.9643 13.1396 43.8932C13.1396 56.8221 23.5283 67.3031 36.3434 67.3031Z" fill="#0A5B59"/>
<path d="M37.7031 67.4699C49.2933 67.4699 58.6889 57.4514 58.6889 45.0929C58.6889 32.7344 49.2933 22.7158 37.7031 22.7158C26.113 22.7158 16.7174 32.7344 16.7174 45.0929C16.7174 57.4514 26.113 67.4699 37.7031 67.4699Z" fill="#F2EEE3"/>
<path d="M96.059 67.3031C108.874 67.3031 119.263 56.8221 119.263 43.8932C119.263 30.9643 108.874 20.4834 96.059 20.4834C83.2439 20.4834 72.8552 30.9643 72.8552 43.8932C72.8552 56.8221 83.2439 67.3031 96.059 67.3031Z" fill="#0A5B59"/>
<path d="M94.5209 67.4699C106.111 67.4699 115.507 57.4514 115.507 45.0929C115.507 32.7344 106.111 22.7158 94.5209 22.7158C82.9308 22.7158 73.5352 32.7344 73.5352 45.0929C73.5352 57.4514 82.9308 67.4699 94.5209 67.4699Z" fill="#F2EEE3"/>
<path d="M42.4814 59.0408C49.2658 59.0408 54.7657 53.4921 54.7657 46.6474C54.7657 39.8026 49.2658 34.2539 42.4814 34.2539C35.6969 34.2539 30.197 39.8026 30.197 46.6474C30.197 53.4921 35.6969 59.0408 42.4814 59.0408Z" fill="#FAB84A"/>
<path d="M42.4821 55.7698C47.5704 55.7698 51.6953 51.6083 51.6953 46.4748C51.6953 41.3412 47.5704 37.1797 42.4821 37.1797C37.3937 37.1797 33.2688 41.3412 33.2688 46.4748C33.2688 51.6083 37.3937 55.7698 42.4821 55.7698Z" fill="#201E1E"/>
<path d="M37.3617 43.5458C38.9636 43.5458 40.2622 42.2357 40.2622 40.6196C40.2622 39.0035 38.9636 37.6934 37.3617 37.6934C35.7599 37.6934 34.4613 39.0035 34.4613 40.6196C34.4613 42.2357 35.7599 43.5458 37.3617 43.5458Z" fill="#FEFEFE"/>
<path d="M90.4239 59.0408C97.2083 59.0408 102.708 53.4921 102.708 46.6474C102.708 39.8026 97.2083 34.2539 90.4239 34.2539C83.6394 34.2539 78.1395 39.8026 78.1395 46.6474C78.1395 53.4921 83.6394 59.0408 90.4239 59.0408Z" fill="#FAB84A"/>
<path d="M90.597 55.9366C95.6854 55.9366 99.8103 51.7751 99.8103 46.6415C99.8103 41.508 95.6854 37.3464 90.597 37.3464C85.5087 37.3464 81.3837 41.508 81.3837 46.6415C81.3837 51.7751 85.5087 55.9366 90.597 55.9366Z" fill="#201E1E"/>
<path d="M85.4769 43.5458C87.0788 43.5458 88.3774 42.2357 88.3774 40.6196C88.3774 39.0035 87.0788 37.6934 85.4769 37.6934C83.875 37.6934 82.5764 39.0035 82.5764 40.6196C82.5764 42.2357 83.875 43.5458 85.4769 43.5458Z" fill="#FEFEFE"/>
<path d="M45.7251 79.6967C45.7251 79.6967 41.1185 81.418 35.6588 78.4918C35.6588 78.4918 31.564 76.7705 29.1754 84C29.0047 84 26.2749 81.5902 27.2986 75.7377C27.2986 75.7377 27.981 74.1885 24.91 74.5328C24.91 74.5328 17.5735 76.9426 16.5498 78.3197C16.5498 78.3197 19.2796 74.1885 19.109 71.4344C19.109 71.4344 19.109 70.4016 16.3791 70.5738C16.3791 70.5738 10.5782 70.5738 8.18957 68.8525C8.53081 68.8525 11.6019 66.0984 11.9431 63.6885C11.9431 63.6885 12.6256 60.0738 9.38389 60.2459C9.38389 60.2459 5.45972 60.2459 3.07109 62.6557C3.07109 62.6557 2.21801 57.8361 7.50711 53.877C7.50711 53.877 8.70142 53.1885 7.33649 52.5C7.33649 52.5 1.36493 50.6066 0 43.5492C0 43.5492 2.38863 46.6475 4.77725 45.4426C4.77725 45.4426 5.2891 45.2705 5.45972 44.582C5.45972 44.582 5.2891 40.4508 0 38.7295C0 38.7295 1.70616 36.8361 5.63033 36.4918C5.63033 36.4918 8.36019 35.6311 6.99526 33.7377C6.99526 33.7377 5.11848 31.6721 3.92417 30.9836C3.92417 30.9836 8.18957 31.1557 9.5545 30.2951C9.38389 30.2951 3.58294 29.6066 4.60664 19.6229C4.60664 19.6229 8.87204 25.8197 10.7488 21.5164C10.5782 21.1721 11.4313 18.5902 7.67773 16.5246C7.67773 16.5246 10.0664 12.7377 17.2322 12.5656C17.2322 12.5656 20.6445 11.7049 17.7441 8.77869C17.7441 8.77869 22.5213 7.91803 24.5687 9.98361C24.5687 9.81147 23.7156 5.68033 25.9336 0C25.9336 0 25.2512 10.3279 26.7867 14.2869C26.6161 14.1148 24.2275 10.8443 21.1564 9.63934C21.1564 9.63934 22.6919 14.9754 17.2322 15.1475C17.2322 15.1475 12.7962 14.2869 10.7488 16.0082C10.7488 16.0082 13.9905 22.0328 11.4313 24.6148C11.4313 24.6148 9.04265 26.6803 6.14218 23.7541C6.14218 23.7541 5.80095 28.5738 12.1137 29.9508C12.1137 29.9508 11.09 32.5328 7.84834 32.5328C7.84834 32.5328 10.5782 35.1148 8.53081 37.1803C8.53081 37.1803 6.48341 38.9016 3.92417 38.9016C3.92417 38.9016 8.36019 41.4836 7.84834 45.6148C7.84834 45.6148 6.48341 48.8852 2.72986 47.6803C2.72986 47.6803 5.11848 49.7459 9.04265 51.1229C9.04265 51.1229 11.4313 52.6721 10.4076 54.3934C10.4076 54.3934 6.65403 55.7705 5.63033 59.5574C5.63033 59.5574 11.09 56.8033 13.6493 58.8688C13.6493 58.8688 15.3555 63.8607 11.2607 67.9918C11.2607 67.9918 19.2796 69.3688 22.5213 68.8525C22.5213 68.8525 21.4976 73.3279 20.6446 74.5328C21.1564 74.3607 27.128 71.7787 30.8815 72.6393C30.8815 72.6393 28.1517 77.9754 28.4929 79.8688C28.4929 79.8688 33.2701 74.877 37.1943 75.5656C37.3649 75.3934 36 78.4918 45.7251 79.6967Z" fill="#0A5B59"/>
<path d="M86.1621 80.5574C86.1621 80.5574 89.5744 83.4836 96.9109 81.7623C96.9109 81.7623 97.9346 81.418 98.617 80.9016C98.617 80.9016 99.982 79.6967 99.982 82.1065C99.982 82.1065 104.93 81.0737 105.612 75.7377C105.612 75.7377 105.954 73.6721 108.172 75.2213C108.172 75.2213 109.366 76.2541 110.048 79.0082C110.048 79.0082 112.778 74.5328 111.413 70.2295C111.413 70.2295 111.413 69.3688 112.266 69.541C112.266 69.541 118.579 71.4344 121.48 68.8524C121.48 68.8524 118.067 66.959 118.92 62.4836C118.92 62.4836 119.603 61.1065 122.162 61.9672C122.162 61.9672 124.892 63 125.233 64.377C125.233 64.377 126.257 59.2131 122.333 55.4262C122.333 55.4262 121.309 54.2213 123.015 53.3606C123.015 53.3606 128.816 50.9508 129.669 46.4754C129.669 46.4754 126.086 48.0246 124.721 44.2377C124.721 44.2377 126.598 39.418 132.399 40.9672C132.399 40.9672 130.693 36.6639 122.674 35.1147C122.674 35.1147 121.138 34.5983 122.674 32.3606L125.233 29.0902C125.233 29.0902 121.65 30.9836 119.944 30.1229C119.944 30.1229 119.432 29.9508 120.285 29.6065C120.285 29.6065 126.086 27.0246 125.404 19.2787C125.404 19.2787 120.285 23.0656 117.897 19.4508C117.897 19.4508 117.044 17.2131 121.821 15.1475C121.821 15.1475 119.603 10.3279 107.489 11.7049C107.489 11.7049 109.536 4.9918 105.612 0C105.612 0 108.854 10.6721 104.759 14.459C104.759 14.459 112.437 11.1885 119.944 14.8033C119.944 14.8033 115.337 14.8033 116.873 20.6557C116.873 20.6557 118.579 23.4098 124.039 22.2049C124.039 22.2049 121.138 28.0574 117.726 30.1229C117.726 30.1229 120.285 31.6721 121.991 31.5C121.821 31.8443 119.773 35.1147 119.091 35.459C119.091 35.459 124.38 36.1475 127.963 39.0738C127.963 39.0738 124.551 39.9344 123.015 44.582C123.015 44.582 124.892 48.0246 126.769 48.541C126.769 48.3688 122.845 52.3279 119.603 53.3606C119.773 53.7049 123.356 59.5574 124.039 61.7951C124.039 61.7951 121.138 59.2131 117.555 61.2787C117.555 61.2787 116.19 65.4098 117.897 68.5082C117.897 68.5082 113.29 69.0246 109.878 67.6475C109.878 67.6475 110.219 73.8442 109.707 75.3934C109.707 75.3934 106.807 72.8115 104.077 73.1557C104.077 73.1557 103.565 78.6639 101.518 79.3524C101.518 79.3524 100.323 77.8033 98.7877 77.2869C99.6407 77.2869 94.3516 82.6229 86.1621 80.5574Z" fill="#0A5B59"/>
</svg>
